<?xml version="1.0" encoding="UTF-8"?><svg id="Layer_2" xmlns="http://www.w3.org/2000/svg" viewBox="0 0 325.08 209"><defs><style>.cls-1{fill:#fff;}</style></defs><g id="Design"><g><path class="cls-1" d="M114.77,95.64h-29.38l-.27-43.58-20.77,34.98h-14.21L29.38,53.56v42.08H0V17.08C0,7.65,7.65,0,17.08,0h9.42l31.15,50.96L87.99,0h9.47c9.41,0,17.05,7.62,17.08,17.03l.22,78.61Z"/><path class="cls-1" d="M325.08,0l-36.07,60.94v62.3c0,9.43-7.65,17.08-17.08,17.08h-15.16V60.53L220.7,0h24.27c6.04,0,11.63,3.19,14.71,8.39l14.58,24.67,14.71-24.72c3.08-5.18,8.66-8.35,14.68-8.35h21.44Z"/><path class="cls-1" d="M96.67,115.27c7.51,0,13.64,6.11,13.67,13.63l.21,74.52h-22.35l-.25-39.89-.08-12.29-6.28,10.57-19.63,33.06h-10.27l-19.62-31.63-6.32-10.19v50.36H3.42v-74.48c0-7.53,6.13-13.67,13.67-13.67h7.32l29.94,48.97,2.95,4.83,2.9-4.87,29.13-48.94h7.35m0-3.42h-9.29l-30.12,50.61-30.94-50.61h-9.24c-9.43,0-17.08,7.65-17.08,17.08v77.9H29.17v-41.79l20.62,33.24h14.11l20.62-34.74,.27,43.28h29.17l-.22-77.95c-.03-9.41-7.67-17.03-17.08-17.03h0Z"/><path class="cls-1" d="M217.77,115.27v48.82c0,26.37-15.62,41.49-42.85,41.49s-42.85-15.12-42.85-41.49v-48.82h11.52c7.53,0,13.67,6.13,13.67,13.67v34.21c0,19.31,9.75,23.36,17.93,23.36s17.93-4.05,17.93-23.36v-34.21c0-7.53,6.13-13.67,13.67-13.67h10.98m3.42-3.42h-14.4c-9.43,0-17.08,7.65-17.08,17.08v34.21c0,14.52-5.56,19.95-14.52,19.95s-14.52-5.43-14.52-19.95v-34.21c0-9.43-7.65-17.08-17.08-17.08h-14.94v52.24c0,28.49,17.1,44.91,46.27,44.91s46.27-16.42,46.27-44.91v-52.24h0Z"/><path class="cls-1" d="M222.73,45.22v33.34c0,9.43-7.65,17.08-17.08,17.08h-15.16V46.18c0-14.62-5.6-20.08-14.62-20.08s-14.62,5.46-14.62,20.08v49.46h-14.62c-9.43,0-17.08-7.65-17.08-17.08V45.22c0-28.69,17.21-45.22,46.59-45.22s46.59,16.53,46.59,45.22Z"/><g><path class="cls-1" d="M255.77,194.53h15.81v12.26h-37.58v-9.71l16.95-15.68c3.22-3.01,3.68-4.82,3.68-6.43,0-2.28-1.54-3.68-4.56-3.68-2.81,0-5.49,1.54-6.9,4.35l-11.92-5.96c3.42-6.43,10.18-10.85,20.3-10.85,11.12,0,18.96,5.76,18.96,14.67,0,4.62-1.21,8.78-8.04,14.94l-6.7,6.09Z"/><path class="cls-1" d="M305.43,178.46c7.37,1.81,11.25,6.83,11.25,13.33,0,8.04-6.43,16.08-21.44,16.08-6.43,0-13.46-1.41-18.49-4.22l5.36-11.66c4.02,2.34,8.64,3.42,12.59,3.42,3.55,0,6.1-1.21,6.1-3.62,0-2.01-1.54-3.21-5.56-3.21h-6.23v-9.71l6.9-7.03h-16.75v-11.92h34.97v9.71l-8.71,8.84Z"/></g></g></g></svg>