<?xml version="1.0" encoding="UTF-8"?><svg id="Design" xmlns="http://www.w3.org/2000/svg" viewBox="0 0 41.41 31.39"><path d="M14.86,0h.06s0,.04,.01,.06c.04,.08,.09,.17,.13,.25,.32,.6,.62,1.21,.89,1.84,.04,.08,.04,.08,.13,.07,.29-.04,.59-.08,.88-.11,.66-.08,1.32-.13,1.98-.17,.58-.03,1.16-.05,1.74-.05,.5,0,.99,.01,1.48,.03,.46,.02,.93,.05,1.39,.09,.36,.03,.72,.07,1.07,.11,.26,.03,.52,.07,.78,.1,.05,0,.07,0,.08-.05,0-.02,.01-.03,.02-.05,.3-.7,.63-1.38,1-2.05,.01-.02,.03-.04,.03-.07h.06s.05,.02,.07,.02c.53,.1,1.07,.2,1.6,.32,2.33,.52,4.58,1.28,6.76,2.26,.06,.03,.1,.06,.14,.11,.74,1.09,1.43,2.21,2.06,3.37,1.26,2.32,2.26,4.75,2.97,7.29,.32,1.16,.58,2.33,.77,3.51,.12,.75,.22,1.51,.29,2.27,.06,.61,.1,1.22,.12,1.83,.01,.25,0,.5,.02,.75,0,.07,0,.15,0,.22,0,.57,0,1.14-.01,1.71-.02,.79-.08,1.59-.16,2.38,0,.06-.03,.11-.08,.15-1.07,.78-2.18,1.49-3.33,2.15-2.04,1.16-4.17,2.1-6.4,2.83-.2,.06-.4,.13-.6,.19-.09,.03-.09,.03-.15-.05v-.02c-.8-1.08-1.5-2.21-2.11-3.39-.08-.15-.09-.13,.07-.19,1.15-.44,2.24-.97,3.3-1.59,.03-.02,.06-.02,.07-.06h0c-.25-.21-.51-.41-.76-.61-.05-.04-.09-.04-.15-.02-.23,.1-.45,.21-.68,.3-2.2,.93-4.49,1.56-6.87,1.83-.67,.08-1.35,.13-2.02,.15-.85,.02-1.69,.01-2.54-.05-.66-.05-1.31-.12-1.97-.22-.97-.15-1.93-.36-2.88-.62-1.31-.36-2.58-.83-3.81-1.39-.07-.03-.11-.03-.17,.02-.23,.2-.47,.38-.71,.56-.02,.01-.05,.02-.05,.06,.07,.04,.15,.09,.22,.13,1.03,.59,2.09,1.1,3.2,1.52,.09,.03,.09,.04,.05,.12-.62,1.21-1.34,2.37-2.15,3.47-.05,.07-.05,.07-.13,.04-1.2-.37-2.37-.8-3.53-1.29-1.91-.82-3.73-1.81-5.47-2.96-.45-.3-.9-.61-1.34-.93-.04-.03-.07-.05-.08-.11-.03-.35-.06-.71-.08-1.06-.02-.31-.04-.63-.05-.94C.03,23.69,.02,23.29,0,22.89v-.75c0-.11,0-.22,.01-.33,.01-.13,.03-.27,.01-.4,.01-.03,.01-.06,.01-.09,.01-.5,.04-1,.08-1.49,.05-.67,.12-1.34,.21-2,.12-.89,.28-1.78,.48-2.66,.54-2.42,1.34-4.76,2.39-7,.88-1.9,1.93-3.71,3.1-5.45,.03-.05,.07-.08,.13-.11,1.45-.66,2.93-1.22,4.46-1.67,1.19-.35,2.39-.64,3.61-.86,.12-.02,.25-.03,.36-.08ZM31.33,17.07c0-.17-.03-.5-.1-.81-.21-.94-.66-1.74-1.41-2.34-1.01-.8-2.14-1.02-3.37-.6-.83,.28-1.45,.83-1.9,1.57-.66,1.07-.82,2.23-.53,3.45,.22,.91,.67,1.68,1.41,2.27,1.06,.84,2.25,1.03,3.51,.53,.79-.31,1.37-.88,1.8-1.61,.42-.71,.6-1.48,.6-2.45Zm-21.2,.12c0,.37,.03,.69,.1,1,.21,.97,.67,1.8,1.46,2.42,.98,.78,2.08,.99,3.28,.6,.81-.27,1.44-.79,1.89-1.51,.73-1.13,.9-2.36,.57-3.65-.24-.97-.78-1.75-1.6-2.32-.82-.56-1.73-.75-2.7-.54-.84,.18-1.51,.63-2.04,1.29-.65,.81-.94,1.74-.95,2.72Z"/></svg>