<?xml version="1.0" encoding="UTF-8"?><svg id="Design" xmlns="http://www.w3.org/2000/svg" viewBox="0 0 35.87 27.19"><defs><style>.cls-1{fill:#ddf21e;fill-rule:evenodd;}</style></defs><path class="cls-1" d="M12.87,0h.05s0,.03,0,.05c.04,.07,.08,.14,.12,.22,.28,.52,.54,1.05,.77,1.59,.03,.07,.03,.07,.11,.06,.25-.03,.51-.07,.76-.1,.57-.07,1.14-.12,1.72-.15,.5-.03,1-.04,1.5-.04,.43,0,.86,0,1.29,.03,.4,.02,.8,.04,1.2,.08,.31,.03,.62,.06,.93,.1,.23,.03,.45,.06,.68,.09,.04,0,.06,0,.07-.04,0-.01,.01-.03,.02-.04,.26-.61,.55-1.2,.87-1.77,.01-.02,.03-.04,.02-.06h.05s.04,.02,.06,.02c.46,.08,.92,.17,1.38,.27,2.02,.45,3.97,1.11,5.86,1.96,.05,.02,.09,.05,.12,.1,.64,.94,1.24,1.92,1.79,2.92,1.09,2.01,1.96,4.11,2.57,6.32,.28,1,.5,2.02,.67,3.04,.11,.65,.19,1.31,.25,1.97,.05,.53,.08,1.05,.11,1.58,0,.22,0,.43,.02,.65,0,.06,0,.13,0,.19,0,.49,0,.99,0,1.48-.02,.69-.07,1.38-.14,2.06,0,.06-.02,.1-.07,.13-.93,.67-1.89,1.29-2.88,1.86-1.76,1.01-3.61,1.82-5.54,2.45-.17,.06-.34,.11-.52,.16-.08,.02-.08,.02-.13-.04h-.01c-.68-.95-1.29-1.92-1.82-2.95-.07-.13-.08-.11,.06-.16,.99-.38,1.94-.84,2.86-1.38,.02-.01,.06-.02,.06-.05h0c-.22-.18-.44-.35-.66-.53-.05-.04-.08-.04-.13-.01-.2,.09-.39,.18-.59,.26-1.91,.81-3.89,1.35-5.95,1.59-.58,.07-1.17,.11-1.75,.13-.73,.02-1.46,.01-2.2-.04-.57-.04-1.14-.11-1.7-.19-.84-.13-1.67-.31-2.5-.54-1.13-.31-2.23-.72-3.3-1.2-.06-.03-.1-.03-.15,.02-.2,.17-.4,.33-.61,.48-.02,.01-.04,.02-.05,.06,.06,.04,.13,.08,.19,.11,.89,.51,1.81,.95,2.77,1.32,.08,.03,.08,.03,.04,.1-.54,1.05-1.16,2.05-1.86,3-.04,.06-.04,.06-.11,.04-1.04-.32-2.06-.69-3.05-1.12-1.66-.71-3.23-1.57-4.74-2.56-.39-.26-.78-.53-1.16-.8-.03-.02-.06-.04-.07-.09-.02-.31-.05-.61-.07-.92-.02-.27-.03-.54-.05-.81C.03,20.52,.01,20.17,0,19.83v-.65c0-.1,0-.19,0-.29,0-.11,.02-.23,.01-.35,.01-.02,0-.05,.01-.08,.01-.43,.04-.86,.07-1.29,.04-.58,.1-1.16,.18-1.73,.11-.77,.24-1.54,.41-2.31,.46-2.1,1.16-4.12,2.07-6.07,.77-1.65,1.67-3.22,2.68-4.72,.03-.04,.06-.07,.11-.09,1.25-.57,2.54-1.06,3.86-1.45,1.03-.31,2.07-.55,3.13-.74,.11-.02,.21-.03,.31-.07Zm14.27,14.78c0-.15-.02-.43-.08-.7-.18-.81-.57-1.51-1.22-2.03-.88-.7-1.86-.89-2.92-.52-.72,.24-1.26,.72-1.65,1.36-.57,.93-.71,1.93-.46,2.99,.19,.79,.58,1.46,1.22,1.96,.92,.73,1.95,.89,3.04,.46,.68-.27,1.19-.76,1.56-1.39,.36-.61,.52-1.28,.52-2.12Zm-18.37,.11c0,.32,.03,.6,.09,.87,.18,.84,.58,1.56,1.26,2.09,.85,.67,1.8,.86,2.84,.52,.7-.23,1.24-.69,1.64-1.3,.63-.98,.78-2.04,.5-3.16-.21-.84-.67-1.52-1.39-2.01-.71-.49-1.5-.65-2.34-.47-.72,.15-1.31,.54-1.77,1.12-.56,.7-.81,1.51-.83,2.35Z"/></svg>
