<?xml version="1.0" encoding="UTF-8"?><svg id="Design" xmlns="http://www.w3.org/2000/svg" viewBox="0 0 35.03 35.03"><defs><style>.cls-1{fill-rule:evenodd;}</style></defs><path id="Shape" class="cls-1" d="M17.51,3.16c4.68,0,5.23,.02,7.08,.1,1.71,.08,2.63,.36,3.25,.6,.82,.32,1.4,.7,2.01,1.31,.61,.61,.99,1.2,1.31,2.01,.24,.62,.53,1.54,.6,3.25,.08,1.85,.1,2.4,.1,7.08s-.02,5.23-.1,7.08c-.08,1.71-.36,2.63-.6,3.25-.32,.82-.7,1.4-1.31,2.01-.61,.61-1.2,.99-2.01,1.31-.62,.24-1.54,.53-3.25,.6-1.85,.08-2.4,.1-7.08,.1s-5.23-.02-7.08-.1c-1.71-.08-2.63-.36-3.25-.6-.82-.32-1.4-.7-2.01-1.31-.61-.61-.99-1.2-1.31-2.01-.24-.62-.53-1.54-.6-3.25-.08-1.85-.1-2.4-.1-7.08s.02-5.23,.1-7.08c.08-1.71,.36-2.63,.6-3.25,.32-.82,.7-1.4,1.31-2.01,.61-.61,1.2-.99,2.01-1.31,.62-.24,1.54-.53,3.25-.6,1.85-.08,2.4-.1,7.08-.1m0-3.16c-4.76,0-5.35,.02-7.22,.11-1.86,.09-3.14,.38-4.25,.81-1.15,.45-2.13,1.05-3.1,2.02-.97,.97-1.57,1.95-2.02,3.1C.49,7.16,.19,8.43,.11,10.29c-.09,1.87-.11,2.46-.11,7.22s.02,5.35,.11,7.22c.09,1.86,.38,3.14,.81,4.25,.45,1.15,1.05,2.13,2.02,3.1,.97,.97,1.95,1.57,3.1,2.02,1.11,.43,2.39,.73,4.25,.81,1.87,.09,2.46,.11,7.22,.11s5.35-.02,7.22-.11c1.86-.09,3.14-.38,4.25-.81,1.15-.45,2.13-1.05,3.1-2.02,.97-.97,1.57-1.95,2.02-3.1,.43-1.11,.73-2.39,.81-4.25,.09-1.87,.11-2.46,.11-7.22s-.02-5.35-.11-7.22c-.09-1.86-.38-3.14-.81-4.25-.45-1.15-1.05-2.13-2.02-3.1-.97-.97-1.95-1.57-3.1-2.02-1.11-.43-2.39-.73-4.25-.81-1.87-.09-2.46-.11-7.22-.11Zm.03,8.55c-4.97,0-9,4.03-9,9s4.03,9,9,9,9-4.03,9-9-4.03-9-9-9Zm0,14.84c-3.23,0-5.84-2.62-5.84-5.84s2.62-5.84,5.84-5.84,5.84,2.62,5.84,5.84-2.62,5.84-5.84,5.84Zm11.36-15.26c0,1.15-.93,2.08-2.08,2.08s-2.08-.93-2.08-2.08,.93-2.08,2.08-2.08,2.08,.93,2.08,2.08Z"/></svg>