<?xml version="1.0" encoding="UTF-8"?><svg id="Design" xmlns="http://www.w3.org/2000/svg" viewBox="0 0 30.34 30.34"><defs><style>.cls-1{fill:#ddf21e;fill-rule:evenodd;}</style></defs><path id="Shape" class="cls-1" d="M15.17,2.73c4.05,0,4.53,.02,6.13,.09,1.48,.07,2.28,.31,2.82,.52,.71,.28,1.21,.6,1.74,1.13,.53,.53,.86,1.04,1.13,1.74,.21,.53,.45,1.34,.52,2.82,.07,1.6,.09,2.08,.09,6.13s-.02,4.53-.09,6.13c-.07,1.48-.31,2.28-.52,2.82-.28,.71-.6,1.21-1.13,1.74-.53,.53-1.04,.86-1.74,1.13-.53,.21-1.34,.45-2.82,.52-1.6,.07-2.08,.09-6.13,.09s-4.53-.02-6.13-.09c-1.48-.07-2.28-.31-2.82-.52-.71-.28-1.21-.6-1.74-1.13-.53-.53-.86-1.04-1.13-1.74-.21-.53-.45-1.34-.52-2.82-.07-1.6-.09-2.08-.09-6.13s.02-4.53,.09-6.13c.07-1.48,.31-2.28,.52-2.82,.28-.71,.6-1.21,1.13-1.74,.53-.53,1.04-.86,1.74-1.13,.53-.21,1.34-.45,2.82-.52,1.6-.07,2.08-.09,6.13-.09m0-2.73c-4.12,0-4.64,.02-6.25,.09-1.61,.07-2.72,.33-3.68,.71-1,.39-1.84,.91-2.69,1.75s-1.36,1.69-1.75,2.69c-.38,.96-.63,2.07-.71,3.68-.07,1.62-.09,2.13-.09,6.25s.02,4.64,.09,6.25c.07,1.61,.33,2.72,.71,3.68,.39,1,.91,1.84,1.75,2.69,.84,.84,1.69,1.36,2.69,1.75,.96,.38,2.07,.63,3.68,.71,1.62,.07,2.13,.09,6.25,.09s4.64-.02,6.25-.09c1.61-.07,2.72-.33,3.68-.71,1-.39,1.84-.91,2.69-1.75,.84-.84,1.36-1.69,1.75-2.69,.38-.96,.63-2.07,.71-3.68,.07-1.62,.09-2.13,.09-6.25s-.02-4.64-.09-6.25c-.07-1.61-.33-2.72-.71-3.68-.39-1-.91-1.84-1.75-2.69-.84-.84-1.69-1.36-2.69-1.75-.96-.38-2.07-.63-3.68-.71-1.62-.07-2.13-.09-6.25-.09Zm.03,7.4c-4.31,0-7.8,3.49-7.8,7.8s3.49,7.8,7.8,7.8,7.8-3.49,7.8-7.8-3.49-7.8-7.8-7.8Zm0,12.86c-2.79,0-5.06-2.27-5.06-5.06s2.27-5.06,5.06-5.06,5.06,2.27,5.06,5.06-2.27,5.06-5.06,5.06ZM25.04,7.04c0,1-.81,1.81-1.81,1.81s-1.81-.81-1.81-1.81,.81-1.81,1.81-1.81,1.81,.81,1.81,1.81Z"/></svg>