<?xml version="1.0" encoding="UTF-8"?><svg id="Design" xmlns="http://www.w3.org/2000/svg" viewBox="0 0 35.73 30.63"><defs><style>.cls-1{fill:#ddf21e;fill-rule:evenodd;}</style></defs><path id="Shape" class="cls-1" d="M31.52,4.84c1.51-.96,2.68-2.47,3.22-4.28-1.42,.89-2.98,1.53-4.66,1.88-1.33-1.5-3.24-2.44-5.35-2.44-4.05,0-7.33,3.46-7.33,7.73,0,.61,.06,1.2,.19,1.76-6.09-.32-11.49-3.4-15.11-8.08-.63,1.15-.99,2.47-.99,3.89,0,2.68,1.29,5.05,3.26,6.44-1.2-.04-2.33-.39-3.32-.97v.1c0,3.75,2.53,6.87,5.88,7.58-.62,.18-1.26,.27-1.93,.27-.47,0-.93-.05-1.38-.14,.93,3.07,3.64,5.31,6.85,5.37-2.51,2.07-5.67,3.31-9.1,3.31-.59,0-1.18-.03-1.75-.11,3.24,2.19,7.1,3.47,11.24,3.47,13.49,0,20.86-11.78,20.86-22,0-.34,0-.67-.02-1,1.43-1.09,2.68-2.45,3.66-4-1.32,.61-2.73,1.03-4.21,1.22Z"/></svg>