<?xml version="1.0" encoding="UTF-8"?><svg id="Design" xmlns="http://www.w3.org/2000/svg" viewBox="0 0 41.25 35.36"><defs><style>.cls-1{fill-rule:evenodd;}</style></defs><path id="Shape" class="cls-1" d="M36.39,5.59c1.75-1.1,3.09-2.85,3.72-4.94-1.64,1.02-3.45,1.76-5.38,2.17-1.54-1.74-3.74-2.82-6.18-2.82-4.67,0-8.46,4-8.46,8.93,0,.7,.07,1.38,.22,2.03C13.28,10.59,7.05,7.04,2.87,1.63c-.73,1.32-1.15,2.86-1.15,4.49,0,3.1,1.49,5.83,3.77,7.43-1.39-.05-2.69-.45-3.84-1.12v.11c0,4.33,2.92,7.93,6.79,8.75-.71,.21-1.46,.31-2.23,.31-.54,0-1.08-.05-1.59-.16,1.08,3.54,4.2,6.13,7.91,6.2-2.9,2.4-6.55,3.82-10.51,3.82-.68,0-1.36-.04-2.02-.12,3.75,2.53,8.19,4.01,12.97,4.01,15.57,0,24.08-13.6,24.08-25.4,0-.39,0-.77-.02-1.15,1.65-1.26,3.09-2.83,4.22-4.62-1.52,.71-3.15,1.19-4.86,1.4Z"/></svg>